G04 #@! TF.FileFunction,Soldermask,Top*
%FSLAX46Y46*%
G04 Gerber Fmt 4.6, Leading zero omitted, Abs format (unit mm)*
G04 Created by KiCad (PCBNEW 4.0.7-e2-6376~58~ubuntu16.04.1) date Tue Oct  3 14:54:01 2017*
%MOMM*%
%LPD*%
G01*
G04 APERTURE LIST*
%ADD10C,0.050800*%
%ADD11C,2.400000*%
%ADD12O,1.924000X2.940000*%
%ADD13C,7.400000*%
%ADD14R,1.797000X1.797000*%
%ADD15C,1.797000*%
%ADD16R,2.432000X2.432000*%
%ADD17O,2.432000X2.432000*%
%ADD18R,2.200000X2.200000*%
%ADD19C,2.200000*%
%ADD20C,2.076400*%
%ADD21R,1.700000X1.900000*%
%ADD22R,0.800000X1.900000*%
%ADD23C,4.400000*%
%ADD24C,2.686000*%
G04 APERTURE END LIST*
D10*
D11*
X93870000Y-141074000D03*
X99170000Y-141074000D03*
D12*
X96520000Y-110451900D03*
X99060000Y-110451900D03*
X101600000Y-110451900D03*
X104140000Y-110451900D03*
X106680000Y-110451900D03*
X106680000Y-80048100D03*
X104140000Y-80048100D03*
X101600000Y-80048100D03*
X99060000Y-80048100D03*
X96520000Y-80048100D03*
D13*
X118110000Y-81280000D03*
X85090000Y-81280000D03*
X118110000Y-149860000D03*
X85090000Y-149860000D03*
D14*
X92710000Y-131064000D03*
D15*
X95250000Y-131064000D03*
X97790000Y-131064000D03*
X100330000Y-131064000D03*
X102870000Y-131064000D03*
X105410000Y-131064000D03*
X107950000Y-131064000D03*
X110490000Y-131064000D03*
X110490000Y-123444000D03*
X107950000Y-123444000D03*
X105410000Y-123444000D03*
X102870000Y-123444000D03*
X100330000Y-123444000D03*
X97790000Y-123444000D03*
X95250000Y-123444000D03*
X92710000Y-123444000D03*
D16*
X86360000Y-128524000D03*
D17*
X86360000Y-125984000D03*
D18*
X90170000Y-136652000D03*
D19*
X92710000Y-136652000D03*
X95250000Y-136652000D03*
X97790000Y-136652000D03*
X100330000Y-136652000D03*
X102870000Y-136652000D03*
X105410000Y-136652000D03*
X107950000Y-136652000D03*
X110490000Y-136652000D03*
D11*
X94020000Y-150074000D03*
X94020000Y-145074000D03*
X99020000Y-150074000D03*
X99020000Y-145074000D03*
X91694000Y-145034000D03*
X96774000Y-145034000D03*
X96774000Y-152654000D03*
X94234000Y-152654000D03*
X91694000Y-152654000D03*
D20*
X110490000Y-118110000D03*
X110490000Y-115570000D03*
D21*
X111490000Y-118190000D03*
X111490000Y-115490000D03*
D22*
X111490000Y-117540000D03*
X111490000Y-116140000D03*
D23*
X84582000Y-111252000D03*
X84582000Y-104902000D03*
X84582000Y-117602000D03*
D24*
X116840000Y-123748800D03*
X116840000Y-130251200D03*
M02*
