G04 #@! TF.FileFunction,Legend,Bot*
%FSLAX46Y46*%
G04 Gerber Fmt 4.6, Leading zero omitted, Abs format (unit mm)*
G04 Created by KiCad (PCBNEW 4.0.7-e2-6376~58~ubuntu16.04.1) date Tue Oct  3 14:54:01 2017*
%MOMM*%
%LPD*%
G01*
G04 APERTURE LIST*
%ADD10C,0.050800*%
%ADD11C,0.508000*%
%ADD12C,0.150000*%
%ADD13C,0.300000*%
%ADD14C,0.152400*%
%ADD15C,2.400000*%
%ADD16O,1.924000X2.940000*%
%ADD17C,7.400000*%
%ADD18R,1.797000X1.797000*%
%ADD19C,1.797000*%
%ADD20R,2.432000X2.432000*%
%ADD21O,2.432000X2.432000*%
%ADD22R,2.200000X2.200000*%
%ADD23C,2.200000*%
%ADD24C,2.076400*%
%ADD25C,4.400000*%
%ADD26C,2.686000*%
G04 APERTURE END LIST*
D10*
D11*
X107442000Y-84836000D02*
X96266000Y-84836000D01*
X111760000Y-89154000D02*
X107442000Y-84836000D01*
X111760000Y-105918000D02*
X110998000Y-106680000D01*
X93980000Y-106680000D02*
X92710000Y-107950000D01*
X93980000Y-150114000D02*
X91694000Y-152654000D01*
X99060000Y-150114000D02*
X96774000Y-152654000D01*
X99060000Y-145034000D02*
X99060000Y-150114000D01*
X93980000Y-145034000D02*
X93980000Y-149860000D01*
X93980000Y-145034000D02*
X91694000Y-145034000D01*
X99060000Y-145034000D02*
X96774000Y-145034000D01*
X99060000Y-140970000D02*
X99060000Y-145034000D01*
X93980000Y-141224000D02*
X93980000Y-145034000D01*
X109474000Y-140970000D02*
X99314000Y-140970000D01*
X112522000Y-137922000D02*
X109474000Y-140970000D01*
X112522000Y-133096000D02*
X112522000Y-137922000D01*
X115316000Y-130302000D02*
X112522000Y-133096000D01*
X116840000Y-130302000D02*
X115316000Y-130302000D01*
X89916000Y-128524000D02*
X86360000Y-128524000D01*
X90932000Y-129540000D02*
X89916000Y-128524000D01*
X112776000Y-129540000D02*
X90932000Y-129540000D01*
X116840000Y-125476000D02*
X112776000Y-129540000D01*
X116840000Y-123698000D02*
X116840000Y-125476000D01*
X115062000Y-121158000D02*
X115062000Y-124714000D01*
X116332000Y-119888000D02*
X115062000Y-121158000D01*
X114046000Y-120904000D02*
X114046000Y-124460000D01*
X115316000Y-119634000D02*
X114046000Y-120904000D01*
X113030000Y-120650000D02*
X113030000Y-124206000D01*
X114300000Y-119380000D02*
X113030000Y-120650000D01*
X112014000Y-120396000D02*
X112014000Y-123952000D01*
X113284000Y-119126000D02*
X112014000Y-120396000D01*
X111760000Y-80772000D02*
X110998000Y-80010000D01*
X111760000Y-84328000D02*
X111760000Y-80772000D01*
X113030000Y-124206000D02*
X111252000Y-125984000D01*
X114300000Y-88392000D02*
X114300000Y-119380000D01*
X113284000Y-119126000D02*
X113284000Y-88900000D01*
X110998000Y-124968000D02*
X112014000Y-123952000D01*
X94488000Y-108712000D02*
X95250000Y-107950000D01*
X94488000Y-116840000D02*
X94488000Y-108712000D01*
X95250000Y-117602000D02*
X94488000Y-116840000D01*
X110998000Y-106680000D02*
X93980000Y-106680000D01*
X101600000Y-110490000D02*
X101600000Y-106680000D01*
X92710000Y-107950000D02*
X92710000Y-119634000D01*
X92710000Y-119634000D02*
X86360000Y-125984000D01*
X111760000Y-89154000D02*
X111760000Y-105918000D01*
X94742000Y-83312000D02*
X96266000Y-84836000D01*
X94742000Y-78232000D02*
X94742000Y-83312000D01*
X95504000Y-77470000D02*
X94742000Y-78232000D01*
X100838000Y-77470000D02*
X95504000Y-77470000D01*
X101600000Y-78232000D02*
X100838000Y-77470000D01*
X101600000Y-80010000D02*
X101600000Y-78232000D01*
X109474000Y-110490000D02*
X106680000Y-110490000D01*
X110490000Y-111506000D02*
X109474000Y-110490000D01*
X110490000Y-115570000D02*
X110490000Y-111506000D01*
X110490000Y-123444000D02*
X110490000Y-118110000D01*
X97028000Y-83566000D02*
X96520000Y-83058000D01*
X96520000Y-83058000D02*
X96520000Y-80010000D01*
X107950000Y-83566000D02*
X97028000Y-83566000D01*
X113284000Y-88900000D02*
X107950000Y-83566000D01*
X108458000Y-82550000D02*
X99822000Y-82550000D01*
X114300000Y-88392000D02*
X108458000Y-82550000D01*
X106172000Y-125984000D02*
X111252000Y-125984000D01*
X108458000Y-124968000D02*
X107950000Y-124460000D01*
X107950000Y-123444000D02*
X107950000Y-124460000D01*
X99060000Y-81788000D02*
X99060000Y-80010000D01*
X99822000Y-82550000D02*
X99060000Y-81788000D01*
X99568000Y-117602000D02*
X95250000Y-117602000D01*
X105410000Y-123444000D02*
X105410000Y-125222000D01*
X96520000Y-115824000D02*
X96520000Y-110490000D01*
X97282000Y-116586000D02*
X96520000Y-115824000D01*
X102108000Y-116586000D02*
X97282000Y-116586000D01*
X99060000Y-108458000D02*
X98552000Y-107950000D01*
X98552000Y-107950000D02*
X95250000Y-107950000D01*
X102870000Y-117348000D02*
X102108000Y-116586000D01*
X102870000Y-123444000D02*
X102870000Y-117348000D01*
X99060000Y-108458000D02*
X99060000Y-110490000D01*
X100330000Y-118364000D02*
X99568000Y-117602000D01*
X100330000Y-123444000D02*
X100330000Y-118364000D01*
X104140000Y-125222000D02*
X104140000Y-110490000D01*
X106172000Y-125984000D02*
X105410000Y-125222000D01*
X108458000Y-124968000D02*
X110998000Y-124968000D01*
X103378000Y-125984000D02*
X104140000Y-125222000D01*
X98552000Y-125984000D02*
X103378000Y-125984000D01*
X97790000Y-125222000D02*
X98552000Y-125984000D01*
X97790000Y-123444000D02*
X97790000Y-125222000D01*
X95250000Y-126238000D02*
X95250000Y-123444000D01*
X96012000Y-127000000D02*
X95250000Y-126238000D01*
X111506000Y-127000000D02*
X96012000Y-127000000D01*
X114046000Y-124460000D02*
X111506000Y-127000000D01*
X115316000Y-87884000D02*
X115316000Y-119634000D01*
X111760000Y-84328000D02*
X115316000Y-87884000D01*
X106680000Y-80010000D02*
X110998000Y-80010000D01*
X104140000Y-78232000D02*
X104140000Y-80010000D01*
X104902000Y-77470000D02*
X104140000Y-78232000D01*
X112014000Y-77470000D02*
X104902000Y-77470000D01*
X112776000Y-78232000D02*
X112014000Y-77470000D01*
X112776000Y-83820000D02*
X112776000Y-78232000D01*
X116332000Y-87376000D02*
X112776000Y-83820000D01*
X116332000Y-119888000D02*
X116332000Y-87376000D01*
X111760000Y-128016000D02*
X115062000Y-124714000D01*
X93726000Y-128016000D02*
X111760000Y-128016000D01*
X92710000Y-127000000D02*
X93726000Y-128016000D01*
X92710000Y-123444000D02*
X92710000Y-127000000D01*
X110490000Y-136652000D02*
X110490000Y-131064000D01*
X107950000Y-136652000D02*
X107950000Y-131064000D01*
X105410000Y-136652000D02*
X105410000Y-131064000D01*
X102870000Y-136652000D02*
X102870000Y-131064000D01*
X100330000Y-136652000D02*
X100330000Y-131064000D01*
X97790000Y-136652000D02*
X97790000Y-131064000D01*
X95250000Y-136652000D02*
X95250000Y-131064000D01*
X92710000Y-136652000D02*
X92710000Y-131191000D01*
X90170000Y-138176000D02*
X90170000Y-136652000D01*
X90932000Y-138938000D02*
X90170000Y-138176000D01*
X98425000Y-138938000D02*
X90932000Y-138938000D01*
X99187000Y-139700000D02*
X98425000Y-138938000D01*
X99187000Y-141097000D02*
X99187000Y-139700000D01*
X86360000Y-136652000D02*
X86360000Y-128651000D01*
X90805000Y-141097000D02*
X86360000Y-136652000D01*
X93853000Y-141097000D02*
X90805000Y-141097000D01*
D12*
X92062000Y-94774000D02*
X92062000Y-95274000D01*
X87062000Y-94774000D02*
X92062000Y-94774000D01*
X87062000Y-95274000D02*
X87062000Y-94774000D01*
X92062000Y-95274000D02*
X87062000Y-95274000D01*
X91062000Y-96274000D02*
X92062000Y-95274000D01*
X87062000Y-95274000D02*
X88062000Y-96274000D01*
X88062000Y-96274000D02*
X88062000Y-96774000D01*
X91062000Y-96274000D02*
X88062000Y-96274000D01*
X91062000Y-96774000D02*
X91062000Y-96274000D01*
X100962000Y-96274000D02*
G75*
G02X100962000Y-95274000I0J500000D01*
G01*
X103962000Y-95274000D02*
G75*
G02X103962000Y-96274000I0J-500000D01*
G01*
X100962000Y-95274000D02*
X103962000Y-95274000D01*
X100962000Y-96274000D02*
X100962000Y-96774000D01*
X102462000Y-96274000D02*
X100962000Y-96274000D01*
X103962000Y-96274000D02*
X103962000Y-96774000D01*
X102462000Y-96274000D02*
X103962000Y-96274000D01*
D13*
X109262000Y-142274000D02*
G75*
G02X108262000Y-143274000I-1000000J0D01*
G01*
X83762000Y-143274000D02*
G75*
G02X82762000Y-142274000I0J1000000D01*
G01*
X82762000Y-97774000D02*
G75*
G02X83762000Y-96774000I1000000J0D01*
G01*
X108262000Y-96774000D02*
G75*
G02X109262000Y-97774000I0J-1000000D01*
G01*
X109262000Y-142274000D02*
X109262000Y-97774000D01*
X83762000Y-143274000D02*
X108262000Y-143274000D01*
X82762000Y-97774000D02*
X82762000Y-142274000D01*
X108262000Y-96774000D02*
X83762000Y-96774000D01*
D14*
X98527809Y-99265619D02*
X98334285Y-99265619D01*
X98237524Y-99217238D01*
X98189143Y-99168857D01*
X98092381Y-99023714D01*
X98044000Y-98830190D01*
X98044000Y-98443143D01*
X98092381Y-98346381D01*
X98140762Y-98298000D01*
X98237524Y-98249619D01*
X98431047Y-98249619D01*
X98527809Y-98298000D01*
X98576190Y-98346381D01*
X98624571Y-98443143D01*
X98624571Y-98685048D01*
X98576190Y-98781810D01*
X98527809Y-98830190D01*
X98431047Y-98878571D01*
X98237524Y-98878571D01*
X98140762Y-98830190D01*
X98092381Y-98781810D01*
X98044000Y-98685048D01*
X97753714Y-98249619D02*
X97415047Y-99265619D01*
X97076381Y-98249619D01*
X96979619Y-99362381D02*
X96205524Y-99362381D01*
X95963619Y-99265619D02*
X95963619Y-98249619D01*
X95576572Y-98249619D01*
X95479810Y-98298000D01*
X95431429Y-98346381D01*
X95383048Y-98443143D01*
X95383048Y-98588286D01*
X95431429Y-98685048D01*
X95479810Y-98733429D01*
X95576572Y-98781810D01*
X95963619Y-98781810D01*
X94947619Y-99265619D02*
X94947619Y-98249619D01*
X94560572Y-98249619D01*
X94463810Y-98298000D01*
X94415429Y-98346381D01*
X94367048Y-98443143D01*
X94367048Y-98588286D01*
X94415429Y-98685048D01*
X94463810Y-98733429D01*
X94560572Y-98781810D01*
X94947619Y-98781810D01*
X94028381Y-98249619D02*
X93399429Y-98249619D01*
X93738095Y-98636667D01*
X93592953Y-98636667D01*
X93496191Y-98685048D01*
X93447810Y-98733429D01*
X93399429Y-98830190D01*
X93399429Y-99072095D01*
X93447810Y-99168857D01*
X93496191Y-99217238D01*
X93592953Y-99265619D01*
X93883238Y-99265619D01*
X93980000Y-99217238D01*
X94028381Y-99168857D01*
D12*
X99567904Y-96289714D02*
X99806000Y-96289714D01*
X99806000Y-94861143D01*
X99567904Y-94861143D01*
X99186952Y-95575429D02*
X98425047Y-95575429D01*
X98805999Y-95956381D02*
X98805999Y-95194476D01*
X98044095Y-96289714D02*
X97806000Y-96289714D01*
X97806000Y-94861143D01*
X98044095Y-94861143D01*
X94233904Y-96289714D02*
X94472000Y-96289714D01*
X94472000Y-94861143D01*
X94233904Y-94861143D01*
X93852952Y-95575429D02*
X93091047Y-95575429D01*
X92710095Y-96289714D02*
X92472000Y-96289714D01*
X92472000Y-94861143D01*
X92710095Y-94861143D01*
%LPC*%
D15*
X93870000Y-141074000D03*
X99170000Y-141074000D03*
D16*
X96520000Y-110451900D03*
X99060000Y-110451900D03*
X101600000Y-110451900D03*
X104140000Y-110451900D03*
X106680000Y-110451900D03*
X106680000Y-80048100D03*
X104140000Y-80048100D03*
X101600000Y-80048100D03*
X99060000Y-80048100D03*
X96520000Y-80048100D03*
D17*
X118110000Y-81280000D03*
X85090000Y-81280000D03*
X118110000Y-149860000D03*
X85090000Y-149860000D03*
D18*
X92710000Y-131064000D03*
D19*
X95250000Y-131064000D03*
X97790000Y-131064000D03*
X100330000Y-131064000D03*
X102870000Y-131064000D03*
X105410000Y-131064000D03*
X107950000Y-131064000D03*
X110490000Y-131064000D03*
X110490000Y-123444000D03*
X107950000Y-123444000D03*
X105410000Y-123444000D03*
X102870000Y-123444000D03*
X100330000Y-123444000D03*
X97790000Y-123444000D03*
X95250000Y-123444000D03*
X92710000Y-123444000D03*
D20*
X86360000Y-128524000D03*
D21*
X86360000Y-125984000D03*
D22*
X90170000Y-136652000D03*
D23*
X92710000Y-136652000D03*
X95250000Y-136652000D03*
X97790000Y-136652000D03*
X100330000Y-136652000D03*
X102870000Y-136652000D03*
X105410000Y-136652000D03*
X107950000Y-136652000D03*
X110490000Y-136652000D03*
D15*
X94020000Y-150074000D03*
X94020000Y-145074000D03*
X99020000Y-150074000D03*
X99020000Y-145074000D03*
X91694000Y-145034000D03*
X96774000Y-145034000D03*
X96774000Y-152654000D03*
X94234000Y-152654000D03*
X91694000Y-152654000D03*
D24*
X110490000Y-118110000D03*
X110490000Y-115570000D03*
D25*
X84582000Y-111252000D03*
X84582000Y-104902000D03*
X84582000Y-117602000D03*
D26*
X116840000Y-123748800D03*
X116840000Y-130251200D03*
M02*
