G04 #@! TF.FileFunction,Copper,L2,Bot,Signal*
%FSLAX46Y46*%
G04 Gerber Fmt 4.6, Leading zero omitted, Abs format (unit mm)*
G04 Created by KiCad (PCBNEW 4.0.7-e2-6376~58~ubuntu16.04.1) date Sun Sep 17 01:10:38 2017*
%MOMM*%
%LPD*%
G01*
G04 APERTURE LIST*
%ADD10C,0.050800*%
%ADD11O,1.524000X2.540000*%
%ADD12C,2.000000*%
%ADD13C,1.676400*%
%ADD14C,7.000000*%
%ADD15R,1.397000X1.397000*%
%ADD16C,1.397000*%
%ADD17R,2.032000X2.032000*%
%ADD18O,2.032000X2.032000*%
%ADD19R,1.800000X1.800000*%
%ADD20C,1.800000*%
%ADD21C,0.254000*%
G04 APERTURE END LIST*
D10*
D11*
X96520000Y-110451900D03*
X99060000Y-110451900D03*
X101600000Y-110451900D03*
X104140000Y-110451900D03*
X106680000Y-110451900D03*
X106680000Y-80048100D03*
X104140000Y-80048100D03*
X101600000Y-80048100D03*
X99060000Y-80048100D03*
X96520000Y-80048100D03*
D12*
X93870000Y-141074000D03*
X99170000Y-141074000D03*
D13*
X110490000Y-115570000D03*
X110490000Y-118110000D03*
D14*
X118110000Y-81280000D03*
X85090000Y-81280000D03*
X118110000Y-149860000D03*
X85090000Y-149860000D03*
D15*
X92710000Y-131064000D03*
D16*
X95250000Y-131064000D03*
X97790000Y-131064000D03*
X100330000Y-131064000D03*
X102870000Y-131064000D03*
X105410000Y-131064000D03*
X107950000Y-131064000D03*
X110490000Y-131064000D03*
X110490000Y-123444000D03*
X107950000Y-123444000D03*
X105410000Y-123444000D03*
X102870000Y-123444000D03*
X100330000Y-123444000D03*
X97790000Y-123444000D03*
X95250000Y-123444000D03*
X92710000Y-123444000D03*
D17*
X86360000Y-128524000D03*
D18*
X86360000Y-125984000D03*
D19*
X90170000Y-136652000D03*
D20*
X92710000Y-136652000D03*
X95250000Y-136652000D03*
X97790000Y-136652000D03*
X100330000Y-136652000D03*
X102870000Y-136652000D03*
X105410000Y-136652000D03*
X107950000Y-136652000D03*
X110490000Y-136652000D03*
D21*
G36*
X120702182Y-76984814D02*
X120961749Y-77158250D01*
X121135188Y-77417820D01*
X121210000Y-77793927D01*
X121210000Y-78532533D01*
X120455347Y-77776562D01*
X118936111Y-77145720D01*
X117291106Y-77144284D01*
X115770771Y-77772474D01*
X114606562Y-78934653D01*
X113975720Y-80453889D01*
X113974284Y-82098894D01*
X114602474Y-83619229D01*
X115764653Y-84783438D01*
X117283889Y-85414280D01*
X118928894Y-85415716D01*
X120449229Y-84787526D01*
X121210000Y-84028082D01*
X121210000Y-147112533D01*
X120455347Y-146356562D01*
X118936111Y-145725720D01*
X117291106Y-145724284D01*
X115770771Y-146352474D01*
X114606562Y-147514653D01*
X113975720Y-149033889D01*
X113974284Y-150678894D01*
X114602474Y-152199229D01*
X115764653Y-153363438D01*
X117283889Y-153994280D01*
X118928894Y-153995716D01*
X120449229Y-153367526D01*
X121210000Y-152608082D01*
X121210000Y-153346073D01*
X121135188Y-153722180D01*
X120961749Y-153981750D01*
X120702182Y-154155186D01*
X120326073Y-154230000D01*
X82873927Y-154230000D01*
X82497820Y-154155188D01*
X82238250Y-153981749D01*
X82064814Y-153722182D01*
X81990000Y-153346073D01*
X81990000Y-152607467D01*
X82744653Y-153363438D01*
X84263889Y-153994280D01*
X85908894Y-153995716D01*
X87429229Y-153367526D01*
X88593438Y-152205347D01*
X89224280Y-150686111D01*
X89225716Y-149041106D01*
X88597526Y-147520771D01*
X87435347Y-146356562D01*
X85916111Y-145725720D01*
X84271106Y-145724284D01*
X82750771Y-146352474D01*
X81990000Y-147111918D01*
X81990000Y-141397795D01*
X92234716Y-141397795D01*
X92483106Y-141998943D01*
X92942637Y-142459278D01*
X93543352Y-142708716D01*
X94193795Y-142709284D01*
X94794943Y-142460894D01*
X95255278Y-142001363D01*
X95504716Y-141400648D01*
X95504718Y-141397795D01*
X97534716Y-141397795D01*
X97783106Y-141998943D01*
X98242637Y-142459278D01*
X98843352Y-142708716D01*
X99493795Y-142709284D01*
X100094943Y-142460894D01*
X100555278Y-142001363D01*
X100804716Y-141400648D01*
X100805284Y-140750205D01*
X100556894Y-140149057D01*
X100097363Y-139688722D01*
X99496648Y-139439284D01*
X98846205Y-139438716D01*
X98245057Y-139687106D01*
X97784722Y-140146637D01*
X97535284Y-140747352D01*
X97534716Y-141397795D01*
X95504718Y-141397795D01*
X95505284Y-140750205D01*
X95256894Y-140149057D01*
X94797363Y-139688722D01*
X94196648Y-139439284D01*
X93546205Y-139438716D01*
X92945057Y-139687106D01*
X92484722Y-140146637D01*
X92235284Y-140747352D01*
X92234716Y-141397795D01*
X81990000Y-141397795D01*
X81990000Y-135752000D01*
X88622560Y-135752000D01*
X88622560Y-137552000D01*
X88666838Y-137787317D01*
X88805910Y-138003441D01*
X89018110Y-138148431D01*
X89270000Y-138199440D01*
X91070000Y-138199440D01*
X91305317Y-138155162D01*
X91521441Y-138016090D01*
X91666431Y-137803890D01*
X91670567Y-137783466D01*
X91839357Y-137952551D01*
X92403330Y-138186733D01*
X93013991Y-138187265D01*
X93578371Y-137954068D01*
X93980323Y-137552818D01*
X94379357Y-137952551D01*
X94943330Y-138186733D01*
X95553991Y-138187265D01*
X96118371Y-137954068D01*
X96520323Y-137552818D01*
X96919357Y-137952551D01*
X97483330Y-138186733D01*
X98093991Y-138187265D01*
X98658371Y-137954068D01*
X99060323Y-137552818D01*
X99459357Y-137952551D01*
X100023330Y-138186733D01*
X100633991Y-138187265D01*
X101198371Y-137954068D01*
X101600323Y-137552818D01*
X101999357Y-137952551D01*
X102563330Y-138186733D01*
X103173991Y-138187265D01*
X103738371Y-137954068D01*
X104140323Y-137552818D01*
X104539357Y-137952551D01*
X105103330Y-138186733D01*
X105713991Y-138187265D01*
X106278371Y-137954068D01*
X106680323Y-137552818D01*
X107079357Y-137952551D01*
X107643330Y-138186733D01*
X108253991Y-138187265D01*
X108818371Y-137954068D01*
X109220323Y-137552818D01*
X109619357Y-137952551D01*
X110183330Y-138186733D01*
X110793991Y-138187265D01*
X111358371Y-137954068D01*
X111790551Y-137522643D01*
X112024733Y-136958670D01*
X112025265Y-136348009D01*
X111792068Y-135783629D01*
X111360643Y-135351449D01*
X110796670Y-135117267D01*
X110186009Y-135116735D01*
X109621629Y-135349932D01*
X109219677Y-135751182D01*
X108820643Y-135351449D01*
X108256670Y-135117267D01*
X107646009Y-135116735D01*
X107081629Y-135349932D01*
X106679677Y-135751182D01*
X106280643Y-135351449D01*
X105716670Y-135117267D01*
X105106009Y-135116735D01*
X104541629Y-135349932D01*
X104139677Y-135751182D01*
X103740643Y-135351449D01*
X103176670Y-135117267D01*
X102566009Y-135116735D01*
X102001629Y-135349932D01*
X101599677Y-135751182D01*
X101200643Y-135351449D01*
X100636670Y-135117267D01*
X100026009Y-135116735D01*
X99461629Y-135349932D01*
X99059677Y-135751182D01*
X98660643Y-135351449D01*
X98096670Y-135117267D01*
X97486009Y-135116735D01*
X96921629Y-135349932D01*
X96519677Y-135751182D01*
X96120643Y-135351449D01*
X95556670Y-135117267D01*
X94946009Y-135116735D01*
X94381629Y-135349932D01*
X93979677Y-135751182D01*
X93580643Y-135351449D01*
X93016670Y-135117267D01*
X92406009Y-135116735D01*
X91841629Y-135349932D01*
X91673387Y-135517880D01*
X91673162Y-135516683D01*
X91534090Y-135300559D01*
X91321890Y-135155569D01*
X91070000Y-135104560D01*
X89270000Y-135104560D01*
X89034683Y-135148838D01*
X88818559Y-135287910D01*
X88673569Y-135500110D01*
X88622560Y-135752000D01*
X81990000Y-135752000D01*
X81990000Y-130365500D01*
X91364060Y-130365500D01*
X91364060Y-131762500D01*
X91408338Y-131997817D01*
X91547410Y-132213941D01*
X91759610Y-132358931D01*
X92011500Y-132409940D01*
X93408500Y-132409940D01*
X93643817Y-132365662D01*
X93859941Y-132226590D01*
X94004931Y-132014390D01*
X94055940Y-131762500D01*
X94055940Y-131666116D01*
X94118854Y-131818380D01*
X94493647Y-132193827D01*
X94983587Y-132397268D01*
X95514086Y-132397731D01*
X96004380Y-132195146D01*
X96379827Y-131820353D01*
X96520094Y-131482554D01*
X96658854Y-131818380D01*
X97033647Y-132193827D01*
X97523587Y-132397268D01*
X98054086Y-132397731D01*
X98544380Y-132195146D01*
X98919827Y-131820353D01*
X99060094Y-131482554D01*
X99198854Y-131818380D01*
X99573647Y-132193827D01*
X100063587Y-132397268D01*
X100594086Y-132397731D01*
X101084380Y-132195146D01*
X101459827Y-131820353D01*
X101600094Y-131482554D01*
X101738854Y-131818380D01*
X102113647Y-132193827D01*
X102603587Y-132397268D01*
X103134086Y-132397731D01*
X103624380Y-132195146D01*
X103999827Y-131820353D01*
X104140094Y-131482554D01*
X104278854Y-131818380D01*
X104653647Y-132193827D01*
X105143587Y-132397268D01*
X105674086Y-132397731D01*
X106164380Y-132195146D01*
X106539827Y-131820353D01*
X106680094Y-131482554D01*
X106818854Y-131818380D01*
X107193647Y-132193827D01*
X107683587Y-132397268D01*
X108214086Y-132397731D01*
X108704380Y-132195146D01*
X109079827Y-131820353D01*
X109220094Y-131482554D01*
X109358854Y-131818380D01*
X109733647Y-132193827D01*
X110223587Y-132397268D01*
X110754086Y-132397731D01*
X111244380Y-132195146D01*
X111619827Y-131820353D01*
X111823268Y-131330413D01*
X111823731Y-130799914D01*
X111621146Y-130309620D01*
X111246353Y-129934173D01*
X110756413Y-129730732D01*
X110225914Y-129730269D01*
X109735620Y-129932854D01*
X109360173Y-130307647D01*
X109219906Y-130645446D01*
X109081146Y-130309620D01*
X108706353Y-129934173D01*
X108216413Y-129730732D01*
X107685914Y-129730269D01*
X107195620Y-129932854D01*
X106820173Y-130307647D01*
X106679906Y-130645446D01*
X106541146Y-130309620D01*
X106166353Y-129934173D01*
X105676413Y-129730732D01*
X105145914Y-129730269D01*
X104655620Y-129932854D01*
X104280173Y-130307647D01*
X104139906Y-130645446D01*
X104001146Y-130309620D01*
X103626353Y-129934173D01*
X103136413Y-129730732D01*
X102605914Y-129730269D01*
X102115620Y-129932854D01*
X101740173Y-130307647D01*
X101599906Y-130645446D01*
X101461146Y-130309620D01*
X101086353Y-129934173D01*
X100596413Y-129730732D01*
X100065914Y-129730269D01*
X99575620Y-129932854D01*
X99200173Y-130307647D01*
X99059906Y-130645446D01*
X98921146Y-130309620D01*
X98546353Y-129934173D01*
X98056413Y-129730732D01*
X97525914Y-129730269D01*
X97035620Y-129932854D01*
X96660173Y-130307647D01*
X96519906Y-130645446D01*
X96381146Y-130309620D01*
X96006353Y-129934173D01*
X95516413Y-129730732D01*
X94985914Y-129730269D01*
X94495620Y-129932854D01*
X94120173Y-130307647D01*
X94055940Y-130462337D01*
X94055940Y-130365500D01*
X94011662Y-130130183D01*
X93872590Y-129914059D01*
X93660390Y-129769069D01*
X93408500Y-129718060D01*
X92011500Y-129718060D01*
X91776183Y-129762338D01*
X91560059Y-129901410D01*
X91415069Y-130113610D01*
X91364060Y-130365500D01*
X81990000Y-130365500D01*
X81990000Y-127508000D01*
X84696560Y-127508000D01*
X84696560Y-129540000D01*
X84740838Y-129775317D01*
X84879910Y-129991441D01*
X85092110Y-130136431D01*
X85344000Y-130187440D01*
X87376000Y-130187440D01*
X87611317Y-130143162D01*
X87827441Y-130004090D01*
X87972431Y-129791890D01*
X88023440Y-129540000D01*
X88023440Y-127508000D01*
X87979162Y-127272683D01*
X87840090Y-127056559D01*
X87693128Y-126956144D01*
X87697188Y-126952379D01*
X87965983Y-126366946D01*
X87847367Y-126111000D01*
X86487000Y-126111000D01*
X86487000Y-126131000D01*
X86233000Y-126131000D01*
X86233000Y-126111000D01*
X84872633Y-126111000D01*
X84754017Y-126366946D01*
X85022812Y-126952379D01*
X85027724Y-126956934D01*
X84892559Y-127043910D01*
X84747569Y-127256110D01*
X84696560Y-127508000D01*
X81990000Y-127508000D01*
X81990000Y-125601054D01*
X84754017Y-125601054D01*
X84872633Y-125857000D01*
X86233000Y-125857000D01*
X86233000Y-124497164D01*
X86487000Y-124497164D01*
X86487000Y-125857000D01*
X87847367Y-125857000D01*
X87965983Y-125601054D01*
X87697188Y-125015621D01*
X87224818Y-124577615D01*
X86742944Y-124378025D01*
X86487000Y-124497164D01*
X86233000Y-124497164D01*
X85977056Y-124378025D01*
X85495182Y-124577615D01*
X85022812Y-125015621D01*
X84754017Y-125601054D01*
X81990000Y-125601054D01*
X81990000Y-123708086D01*
X91376269Y-123708086D01*
X91578854Y-124198380D01*
X91953647Y-124573827D01*
X92443587Y-124777268D01*
X92974086Y-124777731D01*
X93464380Y-124575146D01*
X93839827Y-124200353D01*
X93980094Y-123862554D01*
X94118854Y-124198380D01*
X94493647Y-124573827D01*
X94983587Y-124777268D01*
X95514086Y-124777731D01*
X96004380Y-124575146D01*
X96379827Y-124200353D01*
X96520094Y-123862554D01*
X96658854Y-124198380D01*
X97033647Y-124573827D01*
X97523587Y-124777268D01*
X98054086Y-124777731D01*
X98544380Y-124575146D01*
X98919827Y-124200353D01*
X99060094Y-123862554D01*
X99198854Y-124198380D01*
X99573647Y-124573827D01*
X100063587Y-124777268D01*
X100594086Y-124777731D01*
X101084380Y-124575146D01*
X101459827Y-124200353D01*
X101600094Y-123862554D01*
X101738854Y-124198380D01*
X102113647Y-124573827D01*
X102603587Y-124777268D01*
X103134086Y-124777731D01*
X103624380Y-124575146D01*
X103999827Y-124200353D01*
X104140094Y-123862554D01*
X104278854Y-124198380D01*
X104653647Y-124573827D01*
X105143587Y-124777268D01*
X105674086Y-124777731D01*
X106164380Y-124575146D01*
X106539827Y-124200353D01*
X106680094Y-123862554D01*
X106818854Y-124198380D01*
X107193647Y-124573827D01*
X107683587Y-124777268D01*
X108214086Y-124777731D01*
X108704380Y-124575146D01*
X109079827Y-124200353D01*
X109220094Y-123862554D01*
X109358854Y-124198380D01*
X109733647Y-124573827D01*
X110223587Y-124777268D01*
X110754086Y-124777731D01*
X111244380Y-124575146D01*
X111619827Y-124200353D01*
X111823268Y-123710413D01*
X111823731Y-123179914D01*
X111621146Y-122689620D01*
X111246353Y-122314173D01*
X110756413Y-122110732D01*
X110225914Y-122110269D01*
X109735620Y-122312854D01*
X109360173Y-122687647D01*
X109219906Y-123025446D01*
X109081146Y-122689620D01*
X108706353Y-122314173D01*
X108216413Y-122110732D01*
X107685914Y-122110269D01*
X107195620Y-122312854D01*
X106820173Y-122687647D01*
X106679906Y-123025446D01*
X106541146Y-122689620D01*
X106166353Y-122314173D01*
X105676413Y-122110732D01*
X105145914Y-122110269D01*
X104655620Y-122312854D01*
X104280173Y-122687647D01*
X104139906Y-123025446D01*
X104001146Y-122689620D01*
X103626353Y-122314173D01*
X103136413Y-122110732D01*
X102605914Y-122110269D01*
X102115620Y-122312854D01*
X101740173Y-122687647D01*
X101599906Y-123025446D01*
X101461146Y-122689620D01*
X101086353Y-122314173D01*
X100596413Y-122110732D01*
X100065914Y-122110269D01*
X99575620Y-122312854D01*
X99200173Y-122687647D01*
X99059906Y-123025446D01*
X98921146Y-122689620D01*
X98546353Y-122314173D01*
X98056413Y-122110732D01*
X97525914Y-122110269D01*
X97035620Y-122312854D01*
X96660173Y-122687647D01*
X96519906Y-123025446D01*
X96381146Y-122689620D01*
X96006353Y-122314173D01*
X95516413Y-122110732D01*
X94985914Y-122110269D01*
X94495620Y-122312854D01*
X94120173Y-122687647D01*
X93979906Y-123025446D01*
X93841146Y-122689620D01*
X93466353Y-122314173D01*
X92976413Y-122110732D01*
X92445914Y-122110269D01*
X91955620Y-122312854D01*
X91580173Y-122687647D01*
X91376732Y-123177587D01*
X91376269Y-123708086D01*
X81990000Y-123708086D01*
X81990000Y-117550000D01*
X86360000Y-117550000D01*
X86428584Y-117536358D01*
X86498514Y-117536358D01*
X86692917Y-117497689D01*
X86842844Y-117435587D01*
X86948859Y-117391674D01*
X87113666Y-117281553D01*
X87211609Y-117183609D01*
X87309553Y-117085666D01*
X87419674Y-116920859D01*
X87510541Y-116701486D01*
X87525689Y-116664917D01*
X87564358Y-116470513D01*
X87564358Y-116400584D01*
X87578000Y-116332000D01*
X87578000Y-116078000D01*
X87564358Y-116009416D01*
X87564358Y-115939487D01*
X87548896Y-115861752D01*
X109016545Y-115861752D01*
X109240353Y-116403411D01*
X109654409Y-116818190D01*
X109706392Y-116839775D01*
X109656589Y-116860353D01*
X109241810Y-117274409D01*
X109017056Y-117815677D01*
X109016545Y-118401752D01*
X109240353Y-118943411D01*
X109654409Y-119358190D01*
X110195677Y-119582944D01*
X110781752Y-119583455D01*
X111323411Y-119359647D01*
X111738190Y-118945591D01*
X111962944Y-118404323D01*
X111963455Y-117818248D01*
X111739647Y-117276589D01*
X111325591Y-116861810D01*
X111273608Y-116840225D01*
X111323411Y-116819647D01*
X111738190Y-116405591D01*
X111962944Y-115864323D01*
X111963455Y-115278248D01*
X111739647Y-114736589D01*
X111325591Y-114321810D01*
X110784323Y-114097056D01*
X110198248Y-114096545D01*
X109656589Y-114320353D01*
X109241810Y-114734409D01*
X109017056Y-115275677D01*
X109016545Y-115861752D01*
X87548896Y-115861752D01*
X87525689Y-115745083D01*
X87480357Y-115635642D01*
X87419674Y-115489141D01*
X87309553Y-115324334D01*
X87172457Y-115187239D01*
X87113666Y-115128447D01*
X86948859Y-115018326D01*
X86842844Y-114974413D01*
X86692917Y-114912311D01*
X86498514Y-114873642D01*
X86428584Y-114873642D01*
X86360000Y-114860000D01*
X81990000Y-114860000D01*
X81990000Y-113740000D01*
X86360000Y-113740000D01*
X86428584Y-113726358D01*
X86498514Y-113726358D01*
X86692917Y-113687689D01*
X86842844Y-113625587D01*
X86948859Y-113581674D01*
X87113666Y-113471553D01*
X87211609Y-113373609D01*
X87309553Y-113275666D01*
X87419674Y-113110859D01*
X87510541Y-112891486D01*
X87525689Y-112854917D01*
X87564358Y-112660513D01*
X87564358Y-112590584D01*
X87578000Y-112522000D01*
X87578000Y-112268000D01*
X87564358Y-112199416D01*
X87564358Y-112129487D01*
X87525689Y-111935083D01*
X87480357Y-111825642D01*
X87419674Y-111679141D01*
X87309553Y-111514334D01*
X87172457Y-111377239D01*
X87113666Y-111318447D01*
X86948859Y-111208326D01*
X86842844Y-111164413D01*
X86692917Y-111102311D01*
X86498514Y-111063642D01*
X86428584Y-111063642D01*
X86360000Y-111050000D01*
X81990000Y-111050000D01*
X81990000Y-109930000D01*
X86360000Y-109930000D01*
X86428584Y-109916358D01*
X86498514Y-109916358D01*
X86547676Y-109906579D01*
X95123000Y-109906579D01*
X95123000Y-110997221D01*
X95229340Y-111531830D01*
X95532172Y-111985049D01*
X95985391Y-112287881D01*
X96520000Y-112394221D01*
X97054609Y-112287881D01*
X97507828Y-111985049D01*
X97790000Y-111562750D01*
X98072172Y-111985049D01*
X98525391Y-112287881D01*
X99060000Y-112394221D01*
X99594609Y-112287881D01*
X100047828Y-111985049D01*
X100339330Y-111548787D01*
X100357941Y-111611841D01*
X100701974Y-112037530D01*
X101182723Y-112299160D01*
X101256930Y-112314120D01*
X101473000Y-112191620D01*
X101473000Y-110578900D01*
X101453000Y-110578900D01*
X101453000Y-110324900D01*
X101473000Y-110324900D01*
X101473000Y-108712180D01*
X101727000Y-108712180D01*
X101727000Y-110324900D01*
X101747000Y-110324900D01*
X101747000Y-110578900D01*
X101727000Y-110578900D01*
X101727000Y-112191620D01*
X101943070Y-112314120D01*
X102017277Y-112299160D01*
X102498026Y-112037530D01*
X102842059Y-111611841D01*
X102860670Y-111548787D01*
X103152172Y-111985049D01*
X103605391Y-112287881D01*
X104140000Y-112394221D01*
X104674609Y-112287881D01*
X105127828Y-111985049D01*
X105410000Y-111562750D01*
X105692172Y-111985049D01*
X106145391Y-112287881D01*
X106680000Y-112394221D01*
X107214609Y-112287881D01*
X107667828Y-111985049D01*
X107970660Y-111531830D01*
X108077000Y-110997221D01*
X108077000Y-109906579D01*
X107970660Y-109371970D01*
X107667828Y-108918751D01*
X107214609Y-108615919D01*
X106680000Y-108509579D01*
X106145391Y-108615919D01*
X105692172Y-108918751D01*
X105410000Y-109341050D01*
X105127828Y-108918751D01*
X104674609Y-108615919D01*
X104140000Y-108509579D01*
X103605391Y-108615919D01*
X103152172Y-108918751D01*
X102860670Y-109355013D01*
X102842059Y-109291959D01*
X102498026Y-108866270D01*
X102017277Y-108604640D01*
X101943070Y-108589680D01*
X101727000Y-108712180D01*
X101473000Y-108712180D01*
X101256930Y-108589680D01*
X101182723Y-108604640D01*
X100701974Y-108866270D01*
X100357941Y-109291959D01*
X100339330Y-109355013D01*
X100047828Y-108918751D01*
X99594609Y-108615919D01*
X99060000Y-108509579D01*
X98525391Y-108615919D01*
X98072172Y-108918751D01*
X97790000Y-109341050D01*
X97507828Y-108918751D01*
X97054609Y-108615919D01*
X96520000Y-108509579D01*
X95985391Y-108615919D01*
X95532172Y-108918751D01*
X95229340Y-109371970D01*
X95123000Y-109906579D01*
X86547676Y-109906579D01*
X86692917Y-109877689D01*
X86842844Y-109815587D01*
X86948859Y-109771674D01*
X87113666Y-109661553D01*
X87211609Y-109563609D01*
X87309553Y-109465666D01*
X87419674Y-109300859D01*
X87510541Y-109081486D01*
X87525689Y-109044917D01*
X87564358Y-108850513D01*
X87564358Y-108780584D01*
X87578000Y-108712000D01*
X87578000Y-108458000D01*
X87564358Y-108389416D01*
X87564358Y-108319487D01*
X87525689Y-108125083D01*
X87480357Y-108015642D01*
X87419674Y-107869141D01*
X87309553Y-107704334D01*
X87172457Y-107567239D01*
X87113666Y-107508447D01*
X86948859Y-107398326D01*
X86842844Y-107354413D01*
X86692917Y-107292311D01*
X86498514Y-107253642D01*
X86428584Y-107253642D01*
X86360000Y-107240000D01*
X81990000Y-107240000D01*
X81990000Y-84027467D01*
X82744653Y-84783438D01*
X84263889Y-85414280D01*
X85908894Y-85415716D01*
X87429229Y-84787526D01*
X88593438Y-83625347D01*
X89224280Y-82106111D01*
X89225716Y-80461106D01*
X88829744Y-79502779D01*
X95123000Y-79502779D01*
X95123000Y-80593421D01*
X95229340Y-81128030D01*
X95532172Y-81581249D01*
X95985391Y-81884081D01*
X96520000Y-81990421D01*
X97054609Y-81884081D01*
X97507828Y-81581249D01*
X97790000Y-81158950D01*
X98072172Y-81581249D01*
X98525391Y-81884081D01*
X99060000Y-81990421D01*
X99594609Y-81884081D01*
X100047828Y-81581249D01*
X100339330Y-81144987D01*
X100357941Y-81208041D01*
X100701974Y-81633730D01*
X101182723Y-81895360D01*
X101256930Y-81910320D01*
X101473000Y-81787820D01*
X101473000Y-80175100D01*
X101453000Y-80175100D01*
X101453000Y-79921100D01*
X101473000Y-79921100D01*
X101473000Y-78308380D01*
X101727000Y-78308380D01*
X101727000Y-79921100D01*
X101747000Y-79921100D01*
X101747000Y-80175100D01*
X101727000Y-80175100D01*
X101727000Y-81787820D01*
X101943070Y-81910320D01*
X102017277Y-81895360D01*
X102498026Y-81633730D01*
X102842059Y-81208041D01*
X102860670Y-81144987D01*
X103152172Y-81581249D01*
X103605391Y-81884081D01*
X104140000Y-81990421D01*
X104674609Y-81884081D01*
X105127828Y-81581249D01*
X105410000Y-81158950D01*
X105692172Y-81581249D01*
X106145391Y-81884081D01*
X106680000Y-81990421D01*
X107214609Y-81884081D01*
X107667828Y-81581249D01*
X107970660Y-81128030D01*
X108077000Y-80593421D01*
X108077000Y-79502779D01*
X107970660Y-78968170D01*
X107667828Y-78514951D01*
X107214609Y-78212119D01*
X106680000Y-78105779D01*
X106145391Y-78212119D01*
X105692172Y-78514951D01*
X105410000Y-78937250D01*
X105127828Y-78514951D01*
X104674609Y-78212119D01*
X104140000Y-78105779D01*
X103605391Y-78212119D01*
X103152172Y-78514951D01*
X102860670Y-78951213D01*
X102842059Y-78888159D01*
X102498026Y-78462470D01*
X102017277Y-78200840D01*
X101943070Y-78185880D01*
X101727000Y-78308380D01*
X101473000Y-78308380D01*
X101256930Y-78185880D01*
X101182723Y-78200840D01*
X100701974Y-78462470D01*
X100357941Y-78888159D01*
X100339330Y-78951213D01*
X100047828Y-78514951D01*
X99594609Y-78212119D01*
X99060000Y-78105779D01*
X98525391Y-78212119D01*
X98072172Y-78514951D01*
X97790000Y-78937250D01*
X97507828Y-78514951D01*
X97054609Y-78212119D01*
X96520000Y-78105779D01*
X95985391Y-78212119D01*
X95532172Y-78514951D01*
X95229340Y-78968170D01*
X95123000Y-79502779D01*
X88829744Y-79502779D01*
X88597526Y-78940771D01*
X87435347Y-77776562D01*
X85916111Y-77145720D01*
X84271106Y-77144284D01*
X82750771Y-77772474D01*
X81990000Y-78531918D01*
X81990000Y-77793927D01*
X82064814Y-77417818D01*
X82238250Y-77158251D01*
X82497820Y-76984812D01*
X82873927Y-76910000D01*
X120326073Y-76910000D01*
X120702182Y-76984814D01*
X120702182Y-76984814D01*
G37*
X120702182Y-76984814D02*
X120961749Y-77158250D01*
X121135188Y-77417820D01*
X121210000Y-77793927D01*
X121210000Y-78532533D01*
X120455347Y-77776562D01*
X118936111Y-77145720D01*
X117291106Y-77144284D01*
X115770771Y-77772474D01*
X114606562Y-78934653D01*
X113975720Y-80453889D01*
X113974284Y-82098894D01*
X114602474Y-83619229D01*
X115764653Y-84783438D01*
X117283889Y-85414280D01*
X118928894Y-85415716D01*
X120449229Y-84787526D01*
X121210000Y-84028082D01*
X121210000Y-147112533D01*
X120455347Y-146356562D01*
X118936111Y-145725720D01*
X117291106Y-145724284D01*
X115770771Y-146352474D01*
X114606562Y-147514653D01*
X113975720Y-149033889D01*
X113974284Y-150678894D01*
X114602474Y-152199229D01*
X115764653Y-153363438D01*
X117283889Y-153994280D01*
X118928894Y-153995716D01*
X120449229Y-153367526D01*
X121210000Y-152608082D01*
X121210000Y-153346073D01*
X121135188Y-153722180D01*
X120961749Y-153981750D01*
X120702182Y-154155186D01*
X120326073Y-154230000D01*
X82873927Y-154230000D01*
X82497820Y-154155188D01*
X82238250Y-153981749D01*
X82064814Y-153722182D01*
X81990000Y-153346073D01*
X81990000Y-152607467D01*
X82744653Y-153363438D01*
X84263889Y-153994280D01*
X85908894Y-153995716D01*
X87429229Y-153367526D01*
X88593438Y-152205347D01*
X89224280Y-150686111D01*
X89225716Y-149041106D01*
X88597526Y-147520771D01*
X87435347Y-146356562D01*
X85916111Y-145725720D01*
X84271106Y-145724284D01*
X82750771Y-146352474D01*
X81990000Y-147111918D01*
X81990000Y-141397795D01*
X92234716Y-141397795D01*
X92483106Y-141998943D01*
X92942637Y-142459278D01*
X93543352Y-142708716D01*
X94193795Y-142709284D01*
X94794943Y-142460894D01*
X95255278Y-142001363D01*
X95504716Y-141400648D01*
X95504718Y-141397795D01*
X97534716Y-141397795D01*
X97783106Y-141998943D01*
X98242637Y-142459278D01*
X98843352Y-142708716D01*
X99493795Y-142709284D01*
X100094943Y-142460894D01*
X100555278Y-142001363D01*
X100804716Y-141400648D01*
X100805284Y-140750205D01*
X100556894Y-140149057D01*
X100097363Y-139688722D01*
X99496648Y-139439284D01*
X98846205Y-139438716D01*
X98245057Y-139687106D01*
X97784722Y-140146637D01*
X97535284Y-140747352D01*
X97534716Y-141397795D01*
X95504718Y-141397795D01*
X95505284Y-140750205D01*
X95256894Y-140149057D01*
X94797363Y-139688722D01*
X94196648Y-139439284D01*
X93546205Y-139438716D01*
X92945057Y-139687106D01*
X92484722Y-140146637D01*
X92235284Y-140747352D01*
X92234716Y-141397795D01*
X81990000Y-141397795D01*
X81990000Y-135752000D01*
X88622560Y-135752000D01*
X88622560Y-137552000D01*
X88666838Y-137787317D01*
X88805910Y-138003441D01*
X89018110Y-138148431D01*
X89270000Y-138199440D01*
X91070000Y-138199440D01*
X91305317Y-138155162D01*
X91521441Y-138016090D01*
X91666431Y-137803890D01*
X91670567Y-137783466D01*
X91839357Y-137952551D01*
X92403330Y-138186733D01*
X93013991Y-138187265D01*
X93578371Y-137954068D01*
X93980323Y-137552818D01*
X94379357Y-137952551D01*
X94943330Y-138186733D01*
X95553991Y-138187265D01*
X96118371Y-137954068D01*
X96520323Y-137552818D01*
X96919357Y-137952551D01*
X97483330Y-138186733D01*
X98093991Y-138187265D01*
X98658371Y-137954068D01*
X99060323Y-137552818D01*
X99459357Y-137952551D01*
X100023330Y-138186733D01*
X100633991Y-138187265D01*
X101198371Y-137954068D01*
X101600323Y-137552818D01*
X101999357Y-137952551D01*
X102563330Y-138186733D01*
X103173991Y-138187265D01*
X103738371Y-137954068D01*
X104140323Y-137552818D01*
X104539357Y-137952551D01*
X105103330Y-138186733D01*
X105713991Y-138187265D01*
X106278371Y-137954068D01*
X106680323Y-137552818D01*
X107079357Y-137952551D01*
X107643330Y-138186733D01*
X108253991Y-138187265D01*
X108818371Y-137954068D01*
X109220323Y-137552818D01*
X109619357Y-137952551D01*
X110183330Y-138186733D01*
X110793991Y-138187265D01*
X111358371Y-137954068D01*
X111790551Y-137522643D01*
X112024733Y-136958670D01*
X112025265Y-136348009D01*
X111792068Y-135783629D01*
X111360643Y-135351449D01*
X110796670Y-135117267D01*
X110186009Y-135116735D01*
X109621629Y-135349932D01*
X109219677Y-135751182D01*
X108820643Y-135351449D01*
X108256670Y-135117267D01*
X107646009Y-135116735D01*
X107081629Y-135349932D01*
X106679677Y-135751182D01*
X106280643Y-135351449D01*
X105716670Y-135117267D01*
X105106009Y-135116735D01*
X104541629Y-135349932D01*
X104139677Y-135751182D01*
X103740643Y-135351449D01*
X103176670Y-135117267D01*
X102566009Y-135116735D01*
X102001629Y-135349932D01*
X101599677Y-135751182D01*
X101200643Y-135351449D01*
X100636670Y-135117267D01*
X100026009Y-135116735D01*
X99461629Y-135349932D01*
X99059677Y-135751182D01*
X98660643Y-135351449D01*
X98096670Y-135117267D01*
X97486009Y-135116735D01*
X96921629Y-135349932D01*
X96519677Y-135751182D01*
X96120643Y-135351449D01*
X95556670Y-135117267D01*
X94946009Y-135116735D01*
X94381629Y-135349932D01*
X93979677Y-135751182D01*
X93580643Y-135351449D01*
X93016670Y-135117267D01*
X92406009Y-135116735D01*
X91841629Y-135349932D01*
X91673387Y-135517880D01*
X91673162Y-135516683D01*
X91534090Y-135300559D01*
X91321890Y-135155569D01*
X91070000Y-135104560D01*
X89270000Y-135104560D01*
X89034683Y-135148838D01*
X88818559Y-135287910D01*
X88673569Y-135500110D01*
X88622560Y-135752000D01*
X81990000Y-135752000D01*
X81990000Y-130365500D01*
X91364060Y-130365500D01*
X91364060Y-131762500D01*
X91408338Y-131997817D01*
X91547410Y-132213941D01*
X91759610Y-132358931D01*
X92011500Y-132409940D01*
X93408500Y-132409940D01*
X93643817Y-132365662D01*
X93859941Y-132226590D01*
X94004931Y-132014390D01*
X94055940Y-131762500D01*
X94055940Y-131666116D01*
X94118854Y-131818380D01*
X94493647Y-132193827D01*
X94983587Y-132397268D01*
X95514086Y-132397731D01*
X96004380Y-132195146D01*
X96379827Y-131820353D01*
X96520094Y-131482554D01*
X96658854Y-131818380D01*
X97033647Y-132193827D01*
X97523587Y-132397268D01*
X98054086Y-132397731D01*
X98544380Y-132195146D01*
X98919827Y-131820353D01*
X99060094Y-131482554D01*
X99198854Y-131818380D01*
X99573647Y-132193827D01*
X100063587Y-132397268D01*
X100594086Y-132397731D01*
X101084380Y-132195146D01*
X101459827Y-131820353D01*
X101600094Y-131482554D01*
X101738854Y-131818380D01*
X102113647Y-132193827D01*
X102603587Y-132397268D01*
X103134086Y-132397731D01*
X103624380Y-132195146D01*
X103999827Y-131820353D01*
X104140094Y-131482554D01*
X104278854Y-131818380D01*
X104653647Y-132193827D01*
X105143587Y-132397268D01*
X105674086Y-132397731D01*
X106164380Y-132195146D01*
X106539827Y-131820353D01*
X106680094Y-131482554D01*
X106818854Y-131818380D01*
X107193647Y-132193827D01*
X107683587Y-132397268D01*
X108214086Y-132397731D01*
X108704380Y-132195146D01*
X109079827Y-131820353D01*
X109220094Y-131482554D01*
X109358854Y-131818380D01*
X109733647Y-132193827D01*
X110223587Y-132397268D01*
X110754086Y-132397731D01*
X111244380Y-132195146D01*
X111619827Y-131820353D01*
X111823268Y-131330413D01*
X111823731Y-130799914D01*
X111621146Y-130309620D01*
X111246353Y-129934173D01*
X110756413Y-129730732D01*
X110225914Y-129730269D01*
X109735620Y-129932854D01*
X109360173Y-130307647D01*
X109219906Y-130645446D01*
X109081146Y-130309620D01*
X108706353Y-129934173D01*
X108216413Y-129730732D01*
X107685914Y-129730269D01*
X107195620Y-129932854D01*
X106820173Y-130307647D01*
X106679906Y-130645446D01*
X106541146Y-130309620D01*
X106166353Y-129934173D01*
X105676413Y-129730732D01*
X105145914Y-129730269D01*
X104655620Y-129932854D01*
X104280173Y-130307647D01*
X104139906Y-130645446D01*
X104001146Y-130309620D01*
X103626353Y-129934173D01*
X103136413Y-129730732D01*
X102605914Y-129730269D01*
X102115620Y-129932854D01*
X101740173Y-130307647D01*
X101599906Y-130645446D01*
X101461146Y-130309620D01*
X101086353Y-129934173D01*
X100596413Y-129730732D01*
X100065914Y-129730269D01*
X99575620Y-129932854D01*
X99200173Y-130307647D01*
X99059906Y-130645446D01*
X98921146Y-130309620D01*
X98546353Y-129934173D01*
X98056413Y-129730732D01*
X97525914Y-129730269D01*
X97035620Y-129932854D01*
X96660173Y-130307647D01*
X96519906Y-130645446D01*
X96381146Y-130309620D01*
X96006353Y-129934173D01*
X95516413Y-129730732D01*
X94985914Y-129730269D01*
X94495620Y-129932854D01*
X94120173Y-130307647D01*
X94055940Y-130462337D01*
X94055940Y-130365500D01*
X94011662Y-130130183D01*
X93872590Y-129914059D01*
X93660390Y-129769069D01*
X93408500Y-129718060D01*
X92011500Y-129718060D01*
X91776183Y-129762338D01*
X91560059Y-129901410D01*
X91415069Y-130113610D01*
X91364060Y-130365500D01*
X81990000Y-130365500D01*
X81990000Y-127508000D01*
X84696560Y-127508000D01*
X84696560Y-129540000D01*
X84740838Y-129775317D01*
X84879910Y-129991441D01*
X85092110Y-130136431D01*
X85344000Y-130187440D01*
X87376000Y-130187440D01*
X87611317Y-130143162D01*
X87827441Y-130004090D01*
X87972431Y-129791890D01*
X88023440Y-129540000D01*
X88023440Y-127508000D01*
X87979162Y-127272683D01*
X87840090Y-127056559D01*
X87693128Y-126956144D01*
X87697188Y-126952379D01*
X87965983Y-126366946D01*
X87847367Y-126111000D01*
X86487000Y-126111000D01*
X86487000Y-126131000D01*
X86233000Y-126131000D01*
X86233000Y-126111000D01*
X84872633Y-126111000D01*
X84754017Y-126366946D01*
X85022812Y-126952379D01*
X85027724Y-126956934D01*
X84892559Y-127043910D01*
X84747569Y-127256110D01*
X84696560Y-127508000D01*
X81990000Y-127508000D01*
X81990000Y-125601054D01*
X84754017Y-125601054D01*
X84872633Y-125857000D01*
X86233000Y-125857000D01*
X86233000Y-124497164D01*
X86487000Y-124497164D01*
X86487000Y-125857000D01*
X87847367Y-125857000D01*
X87965983Y-125601054D01*
X87697188Y-125015621D01*
X87224818Y-124577615D01*
X86742944Y-124378025D01*
X86487000Y-124497164D01*
X86233000Y-124497164D01*
X85977056Y-124378025D01*
X85495182Y-124577615D01*
X85022812Y-125015621D01*
X84754017Y-125601054D01*
X81990000Y-125601054D01*
X81990000Y-123708086D01*
X91376269Y-123708086D01*
X91578854Y-124198380D01*
X91953647Y-124573827D01*
X92443587Y-124777268D01*
X92974086Y-124777731D01*
X93464380Y-124575146D01*
X93839827Y-124200353D01*
X93980094Y-123862554D01*
X94118854Y-124198380D01*
X94493647Y-124573827D01*
X94983587Y-124777268D01*
X95514086Y-124777731D01*
X96004380Y-124575146D01*
X96379827Y-124200353D01*
X96520094Y-123862554D01*
X96658854Y-124198380D01*
X97033647Y-124573827D01*
X97523587Y-124777268D01*
X98054086Y-124777731D01*
X98544380Y-124575146D01*
X98919827Y-124200353D01*
X99060094Y-123862554D01*
X99198854Y-124198380D01*
X99573647Y-124573827D01*
X100063587Y-124777268D01*
X100594086Y-124777731D01*
X101084380Y-124575146D01*
X101459827Y-124200353D01*
X101600094Y-123862554D01*
X101738854Y-124198380D01*
X102113647Y-124573827D01*
X102603587Y-124777268D01*
X103134086Y-124777731D01*
X103624380Y-124575146D01*
X103999827Y-124200353D01*
X104140094Y-123862554D01*
X104278854Y-124198380D01*
X104653647Y-124573827D01*
X105143587Y-124777268D01*
X105674086Y-124777731D01*
X106164380Y-124575146D01*
X106539827Y-124200353D01*
X106680094Y-123862554D01*
X106818854Y-124198380D01*
X107193647Y-124573827D01*
X107683587Y-124777268D01*
X108214086Y-124777731D01*
X108704380Y-124575146D01*
X109079827Y-124200353D01*
X109220094Y-123862554D01*
X109358854Y-124198380D01*
X109733647Y-124573827D01*
X110223587Y-124777268D01*
X110754086Y-124777731D01*
X111244380Y-124575146D01*
X111619827Y-124200353D01*
X111823268Y-123710413D01*
X111823731Y-123179914D01*
X111621146Y-122689620D01*
X111246353Y-122314173D01*
X110756413Y-122110732D01*
X110225914Y-122110269D01*
X109735620Y-122312854D01*
X109360173Y-122687647D01*
X109219906Y-123025446D01*
X109081146Y-122689620D01*
X108706353Y-122314173D01*
X108216413Y-122110732D01*
X107685914Y-122110269D01*
X107195620Y-122312854D01*
X106820173Y-122687647D01*
X106679906Y-123025446D01*
X106541146Y-122689620D01*
X106166353Y-122314173D01*
X105676413Y-122110732D01*
X105145914Y-122110269D01*
X104655620Y-122312854D01*
X104280173Y-122687647D01*
X104139906Y-123025446D01*
X104001146Y-122689620D01*
X103626353Y-122314173D01*
X103136413Y-122110732D01*
X102605914Y-122110269D01*
X102115620Y-122312854D01*
X101740173Y-122687647D01*
X101599906Y-123025446D01*
X101461146Y-122689620D01*
X101086353Y-122314173D01*
X100596413Y-122110732D01*
X100065914Y-122110269D01*
X99575620Y-122312854D01*
X99200173Y-122687647D01*
X99059906Y-123025446D01*
X98921146Y-122689620D01*
X98546353Y-122314173D01*
X98056413Y-122110732D01*
X97525914Y-122110269D01*
X97035620Y-122312854D01*
X96660173Y-122687647D01*
X96519906Y-123025446D01*
X96381146Y-122689620D01*
X96006353Y-122314173D01*
X95516413Y-122110732D01*
X94985914Y-122110269D01*
X94495620Y-122312854D01*
X94120173Y-122687647D01*
X93979906Y-123025446D01*
X93841146Y-122689620D01*
X93466353Y-122314173D01*
X92976413Y-122110732D01*
X92445914Y-122110269D01*
X91955620Y-122312854D01*
X91580173Y-122687647D01*
X91376732Y-123177587D01*
X91376269Y-123708086D01*
X81990000Y-123708086D01*
X81990000Y-117550000D01*
X86360000Y-117550000D01*
X86428584Y-117536358D01*
X86498514Y-117536358D01*
X86692917Y-117497689D01*
X86842844Y-117435587D01*
X86948859Y-117391674D01*
X87113666Y-117281553D01*
X87211609Y-117183609D01*
X87309553Y-117085666D01*
X87419674Y-116920859D01*
X87510541Y-116701486D01*
X87525689Y-116664917D01*
X87564358Y-116470513D01*
X87564358Y-116400584D01*
X87578000Y-116332000D01*
X87578000Y-116078000D01*
X87564358Y-116009416D01*
X87564358Y-115939487D01*
X87548896Y-115861752D01*
X109016545Y-115861752D01*
X109240353Y-116403411D01*
X109654409Y-116818190D01*
X109706392Y-116839775D01*
X109656589Y-116860353D01*
X109241810Y-117274409D01*
X109017056Y-117815677D01*
X109016545Y-118401752D01*
X109240353Y-118943411D01*
X109654409Y-119358190D01*
X110195677Y-119582944D01*
X110781752Y-119583455D01*
X111323411Y-119359647D01*
X111738190Y-118945591D01*
X111962944Y-118404323D01*
X111963455Y-117818248D01*
X111739647Y-117276589D01*
X111325591Y-116861810D01*
X111273608Y-116840225D01*
X111323411Y-116819647D01*
X111738190Y-116405591D01*
X111962944Y-115864323D01*
X111963455Y-115278248D01*
X111739647Y-114736589D01*
X111325591Y-114321810D01*
X110784323Y-114097056D01*
X110198248Y-114096545D01*
X109656589Y-114320353D01*
X109241810Y-114734409D01*
X109017056Y-115275677D01*
X109016545Y-115861752D01*
X87548896Y-115861752D01*
X87525689Y-115745083D01*
X87480357Y-115635642D01*
X87419674Y-115489141D01*
X87309553Y-115324334D01*
X87172457Y-115187239D01*
X87113666Y-115128447D01*
X86948859Y-115018326D01*
X86842844Y-114974413D01*
X86692917Y-114912311D01*
X86498514Y-114873642D01*
X86428584Y-114873642D01*
X86360000Y-114860000D01*
X81990000Y-114860000D01*
X81990000Y-113740000D01*
X86360000Y-113740000D01*
X86428584Y-113726358D01*
X86498514Y-113726358D01*
X86692917Y-113687689D01*
X86842844Y-113625587D01*
X86948859Y-113581674D01*
X87113666Y-113471553D01*
X87211609Y-113373609D01*
X87309553Y-113275666D01*
X87419674Y-113110859D01*
X87510541Y-112891486D01*
X87525689Y-112854917D01*
X87564358Y-112660513D01*
X87564358Y-112590584D01*
X87578000Y-112522000D01*
X87578000Y-112268000D01*
X87564358Y-112199416D01*
X87564358Y-112129487D01*
X87525689Y-111935083D01*
X87480357Y-111825642D01*
X87419674Y-111679141D01*
X87309553Y-111514334D01*
X87172457Y-111377239D01*
X87113666Y-111318447D01*
X86948859Y-111208326D01*
X86842844Y-111164413D01*
X86692917Y-111102311D01*
X86498514Y-111063642D01*
X86428584Y-111063642D01*
X86360000Y-111050000D01*
X81990000Y-111050000D01*
X81990000Y-109930000D01*
X86360000Y-109930000D01*
X86428584Y-109916358D01*
X86498514Y-109916358D01*
X86547676Y-109906579D01*
X95123000Y-109906579D01*
X95123000Y-110997221D01*
X95229340Y-111531830D01*
X95532172Y-111985049D01*
X95985391Y-112287881D01*
X96520000Y-112394221D01*
X97054609Y-112287881D01*
X97507828Y-111985049D01*
X97790000Y-111562750D01*
X98072172Y-111985049D01*
X98525391Y-112287881D01*
X99060000Y-112394221D01*
X99594609Y-112287881D01*
X100047828Y-111985049D01*
X100339330Y-111548787D01*
X100357941Y-111611841D01*
X100701974Y-112037530D01*
X101182723Y-112299160D01*
X101256930Y-112314120D01*
X101473000Y-112191620D01*
X101473000Y-110578900D01*
X101453000Y-110578900D01*
X101453000Y-110324900D01*
X101473000Y-110324900D01*
X101473000Y-108712180D01*
X101727000Y-108712180D01*
X101727000Y-110324900D01*
X101747000Y-110324900D01*
X101747000Y-110578900D01*
X101727000Y-110578900D01*
X101727000Y-112191620D01*
X101943070Y-112314120D01*
X102017277Y-112299160D01*
X102498026Y-112037530D01*
X102842059Y-111611841D01*
X102860670Y-111548787D01*
X103152172Y-111985049D01*
X103605391Y-112287881D01*
X104140000Y-112394221D01*
X104674609Y-112287881D01*
X105127828Y-111985049D01*
X105410000Y-111562750D01*
X105692172Y-111985049D01*
X106145391Y-112287881D01*
X106680000Y-112394221D01*
X107214609Y-112287881D01*
X107667828Y-111985049D01*
X107970660Y-111531830D01*
X108077000Y-110997221D01*
X108077000Y-109906579D01*
X107970660Y-109371970D01*
X107667828Y-108918751D01*
X107214609Y-108615919D01*
X106680000Y-108509579D01*
X106145391Y-108615919D01*
X105692172Y-108918751D01*
X105410000Y-109341050D01*
X105127828Y-108918751D01*
X104674609Y-108615919D01*
X104140000Y-108509579D01*
X103605391Y-108615919D01*
X103152172Y-108918751D01*
X102860670Y-109355013D01*
X102842059Y-109291959D01*
X102498026Y-108866270D01*
X102017277Y-108604640D01*
X101943070Y-108589680D01*
X101727000Y-108712180D01*
X101473000Y-108712180D01*
X101256930Y-108589680D01*
X101182723Y-108604640D01*
X100701974Y-108866270D01*
X100357941Y-109291959D01*
X100339330Y-109355013D01*
X100047828Y-108918751D01*
X99594609Y-108615919D01*
X99060000Y-108509579D01*
X98525391Y-108615919D01*
X98072172Y-108918751D01*
X97790000Y-109341050D01*
X97507828Y-108918751D01*
X97054609Y-108615919D01*
X96520000Y-108509579D01*
X95985391Y-108615919D01*
X95532172Y-108918751D01*
X95229340Y-109371970D01*
X95123000Y-109906579D01*
X86547676Y-109906579D01*
X86692917Y-109877689D01*
X86842844Y-109815587D01*
X86948859Y-109771674D01*
X87113666Y-109661553D01*
X87211609Y-109563609D01*
X87309553Y-109465666D01*
X87419674Y-109300859D01*
X87510541Y-109081486D01*
X87525689Y-109044917D01*
X87564358Y-108850513D01*
X87564358Y-108780584D01*
X87578000Y-108712000D01*
X87578000Y-108458000D01*
X87564358Y-108389416D01*
X87564358Y-108319487D01*
X87525689Y-108125083D01*
X87480357Y-108015642D01*
X87419674Y-107869141D01*
X87309553Y-107704334D01*
X87172457Y-107567239D01*
X87113666Y-107508447D01*
X86948859Y-107398326D01*
X86842844Y-107354413D01*
X86692917Y-107292311D01*
X86498514Y-107253642D01*
X86428584Y-107253642D01*
X86360000Y-107240000D01*
X81990000Y-107240000D01*
X81990000Y-84027467D01*
X82744653Y-84783438D01*
X84263889Y-85414280D01*
X85908894Y-85415716D01*
X87429229Y-84787526D01*
X88593438Y-83625347D01*
X89224280Y-82106111D01*
X89225716Y-80461106D01*
X88829744Y-79502779D01*
X95123000Y-79502779D01*
X95123000Y-80593421D01*
X95229340Y-81128030D01*
X95532172Y-81581249D01*
X95985391Y-81884081D01*
X96520000Y-81990421D01*
X97054609Y-81884081D01*
X97507828Y-81581249D01*
X97790000Y-81158950D01*
X98072172Y-81581249D01*
X98525391Y-81884081D01*
X99060000Y-81990421D01*
X99594609Y-81884081D01*
X100047828Y-81581249D01*
X100339330Y-81144987D01*
X100357941Y-81208041D01*
X100701974Y-81633730D01*
X101182723Y-81895360D01*
X101256930Y-81910320D01*
X101473000Y-81787820D01*
X101473000Y-80175100D01*
X101453000Y-80175100D01*
X101453000Y-79921100D01*
X101473000Y-79921100D01*
X101473000Y-78308380D01*
X101727000Y-78308380D01*
X101727000Y-79921100D01*
X101747000Y-79921100D01*
X101747000Y-80175100D01*
X101727000Y-80175100D01*
X101727000Y-81787820D01*
X101943070Y-81910320D01*
X102017277Y-81895360D01*
X102498026Y-81633730D01*
X102842059Y-81208041D01*
X102860670Y-81144987D01*
X103152172Y-81581249D01*
X103605391Y-81884081D01*
X104140000Y-81990421D01*
X104674609Y-81884081D01*
X105127828Y-81581249D01*
X105410000Y-81158950D01*
X105692172Y-81581249D01*
X106145391Y-81884081D01*
X106680000Y-81990421D01*
X107214609Y-81884081D01*
X107667828Y-81581249D01*
X107970660Y-81128030D01*
X108077000Y-80593421D01*
X108077000Y-79502779D01*
X107970660Y-78968170D01*
X107667828Y-78514951D01*
X107214609Y-78212119D01*
X106680000Y-78105779D01*
X106145391Y-78212119D01*
X105692172Y-78514951D01*
X105410000Y-78937250D01*
X105127828Y-78514951D01*
X104674609Y-78212119D01*
X104140000Y-78105779D01*
X103605391Y-78212119D01*
X103152172Y-78514951D01*
X102860670Y-78951213D01*
X102842059Y-78888159D01*
X102498026Y-78462470D01*
X102017277Y-78200840D01*
X101943070Y-78185880D01*
X101727000Y-78308380D01*
X101473000Y-78308380D01*
X101256930Y-78185880D01*
X101182723Y-78200840D01*
X100701974Y-78462470D01*
X100357941Y-78888159D01*
X100339330Y-78951213D01*
X100047828Y-78514951D01*
X99594609Y-78212119D01*
X99060000Y-78105779D01*
X98525391Y-78212119D01*
X98072172Y-78514951D01*
X97790000Y-78937250D01*
X97507828Y-78514951D01*
X97054609Y-78212119D01*
X96520000Y-78105779D01*
X95985391Y-78212119D01*
X95532172Y-78514951D01*
X95229340Y-78968170D01*
X95123000Y-79502779D01*
X88829744Y-79502779D01*
X88597526Y-78940771D01*
X87435347Y-77776562D01*
X85916111Y-77145720D01*
X84271106Y-77144284D01*
X82750771Y-77772474D01*
X81990000Y-78531918D01*
X81990000Y-77793927D01*
X82064814Y-77417818D01*
X82238250Y-77158251D01*
X82497820Y-76984812D01*
X82873927Y-76910000D01*
X120326073Y-76910000D01*
X120702182Y-76984814D01*
M02*
