M48
INCH,TZ
T1C0.032
T2C0.040
T3C0.047
T4C0.118
%
G90
G05
T1
X036500Y-048600
X036500Y-051600
X037500Y-048600
X037500Y-051600
X038500Y-048600
X038500Y-051600
X039500Y-048600
X039500Y-051600
X040500Y-048600
X040500Y-051600
X041500Y-048600
X041500Y-051600
X042500Y-048600
X042500Y-051600
X043500Y-045500
X043500Y-046500
X043500Y-048600
X043500Y-051600
T2
X034000Y-049600
X034000Y-050600
X035500Y-053800
X036500Y-053800
X037500Y-053800
X038000Y-031515
X038000Y-043485
X038500Y-053800
X039000Y-031515
X039000Y-043485
X039500Y-053800
X040000Y-031515
X040000Y-043485
X040500Y-053800
X041000Y-031515
X041000Y-043485
X041500Y-053800
X042000Y-031515
X042000Y-043485
X042500Y-053800
X043500Y-053800
T3
X036957Y-055541
X039043Y-055541
T4
X033500Y-032000
X033500Y-059000
X046500Y-032000
X046500Y-059000
T0
M30
