G04 #@! TF.FileFunction,Profile,NP*
%FSLAX46Y46*%
G04 Gerber Fmt 4.6, Leading zero omitted, Abs format (unit mm)*
G04 Created by KiCad (PCBNEW 4.0.7-e2-6376~58~ubuntu16.04.1) date Sun Sep 17 01:10:38 2017*
%MOMM*%
%LPD*%
G01*
G04 APERTURE LIST*
%ADD10C,0.050800*%
%ADD11C,0.150000*%
G04 APERTURE END LIST*
D10*
D11*
X81280000Y-113538000D02*
X81280000Y-115062000D01*
X81280000Y-109728000D02*
X81280000Y-111252000D01*
X81280000Y-107442000D02*
G75*
G03X81788000Y-107950000I508000J0D01*
G01*
X86868000Y-108458000D02*
G75*
G03X86360000Y-107950000I-508000J0D01*
G01*
X86360000Y-109220000D02*
G75*
G03X86868000Y-108712000I0J508000D01*
G01*
X81788000Y-109220000D02*
G75*
G03X81280000Y-109728000I0J-508000D01*
G01*
X81280000Y-111252000D02*
G75*
G03X81788000Y-111760000I508000J0D01*
G01*
X86868000Y-112268000D02*
G75*
G03X86360000Y-111760000I-508000J0D01*
G01*
X86360000Y-113030000D02*
G75*
G03X86868000Y-112522000I0J508000D01*
G01*
X81788000Y-113030000D02*
G75*
G03X81280000Y-113538000I0J-508000D01*
G01*
X81280000Y-115062000D02*
G75*
G03X81788000Y-115570000I508000J0D01*
G01*
X86868000Y-116078000D02*
G75*
G03X86360000Y-115570000I-508000J0D01*
G01*
X86360000Y-116840000D02*
G75*
G03X86868000Y-116332000I0J508000D01*
G01*
X81788000Y-116840000D02*
G75*
G03X81280000Y-117348000I0J-508000D01*
G01*
X81280000Y-153416000D02*
X81280000Y-117348000D01*
X86360000Y-107950000D02*
X81788000Y-107950000D01*
X86868000Y-108712000D02*
X86868000Y-108458000D01*
X81788000Y-109220000D02*
X86360000Y-109220000D01*
X86360000Y-111760000D02*
X81788000Y-111760000D01*
X86868000Y-112522000D02*
X86868000Y-112268000D01*
X81788000Y-113030000D02*
X86360000Y-113030000D01*
X86360000Y-115570000D02*
X81788000Y-115570000D01*
X86868000Y-116332000D02*
X86868000Y-116078000D01*
X81788000Y-116840000D02*
X86360000Y-116840000D01*
X81280000Y-153416000D02*
G75*
G03X82804000Y-154940000I1524000J0D01*
G01*
X120396000Y-154940000D02*
G75*
G03X121920000Y-153416000I0J1524000D01*
G01*
X121920000Y-77724000D02*
G75*
G03X120396000Y-76200000I-1524000J0D01*
G01*
X82804000Y-76200000D02*
G75*
G03X81280000Y-77724000I0J-1524000D01*
G01*
X81280000Y-77724000D02*
X81280000Y-107442000D01*
X120396000Y-154940000D02*
X82804000Y-154940000D01*
X121920000Y-77724000D02*
X121920000Y-153416000D01*
X82804000Y-76200000D02*
X120396000Y-76200000D01*
M02*
