G04 #@! TF.FileFunction,Copper,L1,Top,Signal*
%FSLAX46Y46*%
G04 Gerber Fmt 4.6, Leading zero omitted, Abs format (unit mm)*
G04 Created by KiCad (PCBNEW 4.0.7-e2-6376~58~ubuntu16.04.1) date Tue Sep 19 17:02:44 2017*
%MOMM*%
%LPD*%
G01*
G04 APERTURE LIST*
%ADD10C,0.050800*%
%ADD11C,2.000000*%
%ADD12O,1.524000X2.540000*%
%ADD13C,7.000000*%
%ADD14R,1.397000X1.397000*%
%ADD15C,1.397000*%
%ADD16R,2.032000X2.032000*%
%ADD17O,2.032000X2.032000*%
%ADD18R,1.800000X1.800000*%
%ADD19C,1.800000*%
%ADD20C,1.676400*%
%ADD21R,1.300000X1.500000*%
%ADD22R,0.400000X1.500000*%
%ADD23C,0.508000*%
G04 APERTURE END LIST*
D10*
D11*
X93870000Y-141074000D03*
X99170000Y-141074000D03*
D12*
X96520000Y-110451900D03*
X99060000Y-110451900D03*
X101600000Y-110451900D03*
X104140000Y-110451900D03*
X106680000Y-110451900D03*
X106680000Y-80048100D03*
X104140000Y-80048100D03*
X101600000Y-80048100D03*
X99060000Y-80048100D03*
X96520000Y-80048100D03*
D13*
X118110000Y-81280000D03*
X85090000Y-81280000D03*
X118110000Y-149860000D03*
X85090000Y-149860000D03*
D14*
X92710000Y-131064000D03*
D15*
X95250000Y-131064000D03*
X97790000Y-131064000D03*
X100330000Y-131064000D03*
X102870000Y-131064000D03*
X105410000Y-131064000D03*
X107950000Y-131064000D03*
X110490000Y-131064000D03*
X110490000Y-123444000D03*
X107950000Y-123444000D03*
X105410000Y-123444000D03*
X102870000Y-123444000D03*
X100330000Y-123444000D03*
X97790000Y-123444000D03*
X95250000Y-123444000D03*
X92710000Y-123444000D03*
D16*
X86360000Y-128524000D03*
D17*
X86360000Y-125984000D03*
D18*
X90170000Y-136652000D03*
D19*
X92710000Y-136652000D03*
X95250000Y-136652000D03*
X97790000Y-136652000D03*
X100330000Y-136652000D03*
X102870000Y-136652000D03*
X105410000Y-136652000D03*
X107950000Y-136652000D03*
X110490000Y-136652000D03*
D11*
X94020000Y-150074000D03*
X94020000Y-145074000D03*
X99020000Y-150074000D03*
X99020000Y-145074000D03*
X91694000Y-145034000D03*
X96774000Y-145034000D03*
X96774000Y-152654000D03*
X94234000Y-152654000D03*
X91694000Y-152654000D03*
D20*
X110490000Y-118110000D03*
X110490000Y-115570000D03*
D21*
X111490000Y-118190000D03*
X111490000Y-115490000D03*
D22*
X111490000Y-117540000D03*
X111490000Y-116140000D03*
D23*
X92710000Y-136652000D02*
X92710000Y-135379208D01*
X92710000Y-135379208D02*
X92710000Y-131064000D01*
X95250000Y-136652000D02*
X95250000Y-131064000D01*
X97790000Y-136652000D02*
X97790000Y-135379208D01*
X97790000Y-135379208D02*
X97790000Y-131064000D01*
X100330000Y-136652000D02*
X100330000Y-131064000D01*
X102870000Y-136652000D02*
X102870000Y-131064000D01*
X105410000Y-136652000D02*
X105410000Y-131064000D01*
X107950000Y-136652000D02*
X107950000Y-135379208D01*
X107950000Y-135379208D02*
X107950000Y-131064000D01*
X110490000Y-136652000D02*
X110490000Y-131064000D01*
X110490000Y-115570000D02*
X110920000Y-115570000D01*
X110920000Y-115570000D02*
X111490000Y-116140000D01*
X110490000Y-118110000D02*
X110920000Y-118110000D01*
X110920000Y-118110000D02*
X111490000Y-117540000D01*
X111490000Y-116140000D02*
X111490000Y-117540000D01*
X110490000Y-111506000D02*
X109435900Y-110451900D01*
X109435900Y-110451900D02*
X106680000Y-110451900D01*
X110490000Y-115570000D02*
X110490000Y-111506000D01*
X110490000Y-123444000D02*
X110490000Y-122456172D01*
X110490000Y-122456172D02*
X110490000Y-118110000D01*
X95250000Y-123444000D02*
X95250000Y-126746000D01*
X111760000Y-84328000D02*
X111760000Y-80772000D01*
X95250000Y-126746000D02*
X96012000Y-127508000D01*
X96012000Y-127508000D02*
X113284000Y-127508000D01*
X113284000Y-127508000D02*
X117602000Y-123190000D01*
X117602000Y-123190000D02*
X117602000Y-90170000D01*
X117602000Y-90170000D02*
X111760000Y-84328000D01*
X111760000Y-80772000D02*
X111036100Y-80048100D01*
X111036100Y-80048100D02*
X106680000Y-80048100D01*
X92710000Y-123444000D02*
X92710000Y-127508000D01*
X113792000Y-128524000D02*
X118618000Y-123698000D01*
X112776000Y-83820000D02*
X112776000Y-78232000D01*
X92710000Y-127508000D02*
X93726000Y-128524000D01*
X93726000Y-128524000D02*
X113792000Y-128524000D01*
X118618000Y-123698000D02*
X118618000Y-89662000D01*
X104140000Y-78270100D02*
X104140000Y-80048100D01*
X118618000Y-89662000D02*
X112776000Y-83820000D01*
X112776000Y-78232000D02*
X112014000Y-77470000D01*
X112014000Y-77470000D02*
X104940100Y-77470000D01*
X104940100Y-77470000D02*
X104140000Y-78270100D01*
X104140000Y-110451900D02*
X104140000Y-125984000D01*
X104140000Y-125984000D02*
X103632000Y-126492000D01*
X97790000Y-125984000D02*
X97790000Y-123444000D01*
X103632000Y-126492000D02*
X98298000Y-126492000D01*
X98298000Y-126492000D02*
X97790000Y-125984000D01*
X98552000Y-107950000D02*
X99060000Y-108458000D01*
X99060000Y-108458000D02*
X99060000Y-110451900D01*
X95250000Y-107950000D02*
X98552000Y-107950000D01*
X94488000Y-108712000D02*
X95250000Y-107950000D01*
X94488000Y-116840000D02*
X94488000Y-108712000D01*
X95250000Y-117602000D02*
X94488000Y-116840000D01*
X99568000Y-117602000D02*
X95250000Y-117602000D01*
X100330000Y-118364000D02*
X99568000Y-117602000D01*
X100330000Y-123444000D02*
X100330000Y-118364000D01*
X102870000Y-123444000D02*
X102870000Y-117348000D01*
X102108000Y-116586000D02*
X97282000Y-116586000D01*
X102870000Y-117348000D02*
X102108000Y-116586000D01*
X97282000Y-116586000D02*
X96520000Y-115824000D01*
X96520000Y-115824000D02*
X96520000Y-110451900D01*
X99060000Y-81788000D02*
X99060000Y-80048100D01*
X108458000Y-82550000D02*
X99822000Y-82550000D01*
X99822000Y-82550000D02*
X99060000Y-81788000D01*
X116586000Y-90678000D02*
X108458000Y-82550000D01*
X116586000Y-122682000D02*
X116586000Y-90678000D01*
X112776000Y-126492000D02*
X116586000Y-122682000D01*
X105918000Y-126492000D02*
X112776000Y-126492000D01*
X105410000Y-125984000D02*
X105918000Y-126492000D01*
X105410000Y-123444000D02*
X105410000Y-125984000D01*
X97028000Y-83566000D02*
X96520000Y-83058000D01*
X96520000Y-83058000D02*
X96520000Y-80048100D01*
X107950000Y-83566000D02*
X97028000Y-83566000D01*
X115570000Y-91186000D02*
X107950000Y-83566000D01*
X115570000Y-122174000D02*
X115570000Y-91186000D01*
X112268000Y-125476000D02*
X115570000Y-122174000D01*
X108458000Y-125476000D02*
X112268000Y-125476000D01*
X107950000Y-124968000D02*
X108458000Y-125476000D01*
X107950000Y-123444000D02*
X107950000Y-124968000D01*
X94020000Y-145074000D02*
X94020000Y-150074000D01*
X94020000Y-150074000D02*
X94020000Y-150328000D01*
X94020000Y-150328000D02*
X91694000Y-152654000D01*
X94020000Y-145074000D02*
X91734000Y-145074000D01*
X91734000Y-145074000D02*
X91694000Y-145034000D01*
X93870000Y-141074000D02*
X93870000Y-144924000D01*
X93870000Y-144924000D02*
X94020000Y-145074000D01*
X90782000Y-141074000D02*
X86360000Y-136652000D01*
X86360000Y-136652000D02*
X86360000Y-128524000D01*
X93870000Y-141074000D02*
X90782000Y-141074000D01*
X87630000Y-123190000D02*
X87630000Y-106680000D01*
X101600000Y-110451900D02*
X101600000Y-107442000D01*
X87630000Y-106680000D02*
X87630000Y-90424000D01*
X101600000Y-107442000D02*
X100838000Y-106680000D01*
X100838000Y-106680000D02*
X89408000Y-106680000D01*
X89408000Y-106680000D02*
X87630000Y-106680000D01*
X86360000Y-125984000D02*
X86360000Y-124460000D01*
X86360000Y-124460000D02*
X87630000Y-123190000D01*
X87630000Y-90424000D02*
X94742000Y-83312000D01*
X94742000Y-83312000D02*
X94742000Y-78232000D01*
X94742000Y-78232000D02*
X95504000Y-77470000D01*
X95504000Y-77470000D02*
X100799900Y-77470000D01*
X100799900Y-77470000D02*
X101600000Y-78270100D01*
X101600000Y-78270100D02*
X101600000Y-80048100D01*
X99020000Y-145074000D02*
X99020000Y-150074000D01*
X99020000Y-150074000D02*
X99020000Y-150408000D01*
X99020000Y-150408000D02*
X96774000Y-152654000D01*
X99020000Y-145074000D02*
X96814000Y-145074000D01*
X96814000Y-145074000D02*
X96774000Y-145034000D01*
X99170000Y-141074000D02*
X99170000Y-144924000D01*
X99170000Y-144924000D02*
X99020000Y-145074000D01*
X90932000Y-138938000D02*
X90170000Y-138176000D01*
X90170000Y-138176000D02*
X90170000Y-136652000D01*
X98448213Y-138938000D02*
X90932000Y-138938000D01*
X99170000Y-141074000D02*
X99170000Y-139659787D01*
X99170000Y-139659787D02*
X98448213Y-138938000D01*
M02*
