<?xml version="1.0" encoding="UTF-8" standalone="no"?>
<svg
   xmlns:dc="http://purl.org/dc/elements/1.1/"
   xmlns:cc="http://creativecommons.org/ns#"
   xmlns:rdf="http://www.w3.org/1999/02/22-rdf-syntax-ns#"
   xmlns:svg="http://www.w3.org/2000/svg"
   xmlns="http://www.w3.org/2000/svg"
   xmlns:sodipodi="http://sodipodi.sourceforge.net/DTD/sodipodi-0.dtd"
   xmlns:inkscape="http://www.inkscape.org/namespaces/inkscape"
   width="40.64mm"
   height="78.74mm"
   viewBox="-20.320000 -39.370000 40.640000 78.740000"
   version="1.1"
   id="svg25"
   sodipodi:docname="lumitron_Acrylic_base.svg"
   inkscape:version="0.92.2 (unknown)">
  <metadata
     id="metadata31">
    <rdf:RDF>
      <cc:Work
         rdf:about="">
        <dc:format>image/svg+xml</dc:format>
        <dc:type
           rdf:resource="http://purl.org/dc/dcmitype/StillImage" />
      </cc:Work>
    </rdf:RDF>
  </metadata>
  <defs
     id="defs29" />
  <sodipodi:namedview
     pagecolor="#ffffff"
     bordercolor="#666666"
     borderopacity="1"
     objecttolerance="10"
     gridtolerance="10"
     guidetolerance="10"
     inkscape:pageopacity="0"
     inkscape:pageshadow="2"
     inkscape:window-width="1366"
     inkscape:window-height="744"
     id="namedview27"
     showgrid="false"
     inkscape:zoom="1.5860215"
     inkscape:cx="-14.313238"
     inkscape:cy="163.41043"
     inkscape:window-x="0"
     inkscape:window-y="24"
     inkscape:window-maximized="1"
     inkscape:current-layer="Pad" />
  <g
     id="Pad"
     transform="scale(1,-1)">
    <path
       id="Pad_f0000"
       d="M -20.32 -37.846 L -20.32 -37.846 L -20.32 37.846 L -20.32 37.846 L -20.32 -37.846 Z "
       stroke="#191919"
       stroke-width="0.35 px"
       style="stroke-width:0.26458334;stroke-miterlimit:4;stroke-dasharray:none;fill:#000000;fill-rule:evenodd" />
    <path
       id="Pad_f0001"
       d="M -20.32 37.846 A 1.524 1.524 0 0 0 -18.796 39.37 L -18.796 39.37 A 1.524 1.524 0 0 1 -20.32 37.846 L -20.32 37.846 Z "
       stroke="#191919"
       stroke-width="0.35 px"
       style="stroke-width:0.26458334;stroke-miterlimit:4;stroke-dasharray:none;fill:#000000;fill-rule:evenodd" />
    <path
       id="Pad_f0002"
       d="M -18.796 39.37 L -18.796 39.37 L 18.796 39.37 L 18.796 39.37 L -18.796 39.37 Z "
       stroke="#191919"
       stroke-width="0.35 px"
       style="stroke-width:0.26458334;stroke-miterlimit:4;stroke-dasharray:none;fill:#000000;fill-rule:evenodd" />
    <path
       id="Pad_f0003"
       d="M 18.796 39.37 A 1.524 1.524 0 0 0 20.32 37.846 L 20.32 37.846 A 1.524 1.524 0 0 1 18.796 39.37 L 18.796 39.37 Z "
       stroke="#191919"
       stroke-width="0.35 px"
       style="stroke-width:0.26458334;stroke-miterlimit:4;stroke-dasharray:none;fill:#000000;fill-rule:evenodd" />
    <path
       id="Pad_f0004"
       d="M 20.32 37.846 L 20.32 37.846 L 20.32 -37.846 L 20.32 -37.846 L 20.32 37.846 Z "
       stroke="#191919"
       stroke-width="0.35 px"
       style="stroke-width:0.26458334;stroke-miterlimit:4;stroke-dasharray:none;fill:#000000;fill-rule:evenodd" />
    <path
       id="Pad_f0005"
       d="M 20.32 -37.846 A 1.524 1.524 0 0 0 18.796 -39.37 L 18.796 -39.37 A 1.524 1.524 0 0 1 20.32 -37.846 L 20.32 -37.846 Z "
       stroke="#191919"
       stroke-width="0.35 px"
       style="stroke-width:0.26458334;stroke-miterlimit:4;stroke-dasharray:none;fill:#000000;fill-rule:evenodd" />
    <path
       id="Pad_f0006"
       d="M 18.796 -39.37 L 18.796 -39.37 L -18.796 -39.37 L -18.796 -39.37 L 18.796 -39.37 Z "
       stroke="#191919"
       stroke-width="0.35 px"
       style="stroke-width:0.26458334;stroke-miterlimit:4;stroke-dasharray:none;fill:#000000;fill-rule:evenodd" />
    <path
       id="Pad_f0007"
       d="M -18.796 -39.37 A 1.524 1.524 0 0 0 -20.32 -37.846 L -20.32 -37.846 A 1.524 1.524 0 0 1 -18.796 -39.37 L -18.796 -39.37 Z "
       stroke="#191919"
       stroke-width="0.35 px"
       style="stroke-width:0.26458334;stroke-miterlimit:4;stroke-dasharray:none;fill:#000000;fill-rule:evenodd" />
    <circle
       cx="-16.51"
       cy="-34.29"
       r="1.524"
       stroke="#191919"
       stroke-width="0.35 px"
       style="stroke-width:0.26458334;stroke-miterlimit:4;stroke-dasharray:none;fill:none"
       id="circle12" />
    <circle
       cx="16.51"
       cy="34.29"
       r="1.524"
       stroke="#191919"
       stroke-width="0.35 px"
       style="stroke-width:0.26458334;stroke-miterlimit:4;stroke-dasharray:none;fill:none"
       id="circle14" />
    <circle
       cx="-16.51"
       cy="34.29"
       r="1.524"
       stroke="#191919"
       stroke-width="0.35 px"
       style="stroke-width:0.26458334;stroke-miterlimit:4;stroke-dasharray:none;fill:none"
       id="circle16" />
    <circle
       cx="16.51"
       cy="-34.290001"
       r="1.524"
       style="fill:none;stroke:#191919;stroke-width:0.26458334;stroke-miterlimit:4;stroke-dasharray:none"
       id="circle20" />
    <title
       id="title22">Pad</title>
  </g>
</svg>
